<?xml version="1.0" standalone="no"?>
<!DOCTYPE svg PUBLIC "-//W3C//DTD SVG 20010904//EN"
 "http://www.w3.org/TR/2001/REC-SVG-20010904/DTD/svg10.dtd">
<svg version="1.0" xmlns="http://www.w3.org/2000/svg"
 width="501.000000pt" height="498.000000pt" viewBox="0 0 501.000000 498.000000"
 preserveAspectRatio="xMidYMid meet">

<g transform="translate(0.000000,498.000000) scale(0.100000,-0.100000)"
fill="#ffffff" stroke="none">
<path d="M2276 4654 c-474 -73 -880 -347 -1121 -755 -30 -50 -84 -159 -121
-242 -234 -531 -416 -1067 -494 -1455 l-21 -103 26 -97 c95 -356 327 -725 661
-1053 237 -232 467 -399 717 -523 229 -113 391 -156 581 -156 185 0 355 45
581 156 276 134 539 333 801 604 281 291 495 652 579 975 l24 95 -24 123 c-79
386 -256 904 -489 1432 -167 379 -369 617 -679 799 -300 177 -685 252 -1021
200z m534 -158 c285 -66 498 -184 701 -386 179 -178 243 -284 411 -680 194
-458 334 -884 413 -1262 14 -64 13 -71 -11 -155 -64 -220 -196 -466 -372 -692
-78 -99 -218 -248 -226 -241 -3 3 26 111 65 240 214 718 253 955 193 1188 -58
228 -253 397 -578 501 -448 144 -1195 158 -1692 32 -359 -91 -597 -261 -673
-483 -78 -227 -43 -503 143 -1118 88 -293 106 -360 96 -360 -13 0 -123 118
-203 217 -161 201 -300 446 -373 658 -45 133 -46 160 -4 330 81 337 200 692
363 1085 160 389 246 541 391 697 242 259 515 398 901 457 17 2 102 3 190 1
125 -3 183 -9 265 -29z m104 -1531 c136 -16 334 -54 424 -81 l53 -16 -3 -326
-3 -327 -44 -84 c-42 -79 -152 -211 -177 -211 -6 0 -18 34 -27 76 -20 94 -68
192 -124 254 -23 26 -83 75 -131 108 -49 34 -97 72 -106 86 -27 42 -48 48
-112 31 -76 -20 -239 -19 -316 1 -54 14 -62 14 -84 0 -13 -9 -28 -25 -34 -36
-5 -10 -51 -47 -101 -81 -150 -103 -222 -205 -256 -364 -9 -41 -21 -75 -27
-75 -25 0 -135 132 -177 211 l-44 84 -3 327 -3 326 58 17 c153 45 415 86 623
99 125 7 486 -4 614 -19z m-1431 -637 c4 -522 4 -521 75 -693 119 -287 377
-514 679 -597 66 -19 106 -22 263 -22 219 -1 292 14 455 94 272 133 464 368
547 667 21 74 22 103 26 551 3 380 6 472 16 472 24 0 160 -96 204 -144 89 -97
130 -235 118 -402 -14 -200 -58 -390 -198 -854 -48 -162 -98 -344 -111 -404
l-22 -109 -75 -60 c-165 -131 -371 -255 -545 -328 -285 -119 -511 -123 -789
-13 -179 71 -396 199 -566 334 l-85 68 -14 74 c-7 40 -37 156 -67 258 -30 102
-83 285 -119 407 -180 616 -176 880 14 1056 58 53 154 116 178 117 9 0 13
-116 16 -472z m1029 -9 c34 0 85 3 113 6 52 7 53 6 147 -59 180 -125 223 -199
244 -425 10 -117 43 -135 150 -81 58 29 170 116 187 145 12 22 27 18 27 -5 0
-44 -34 -158 -70 -237 -148 -320 -453 -516 -805 -517 -392 -2 -737 257 -851
638 -24 79 -31 136 -16 136 4 0 27 -21 52 -46 53 -54 113 -97 173 -124 91 -42
121 -20 131 96 11 115 24 172 58 235 36 68 69 101 185 185 l88 64 63 -6 c34
-3 90 -5 124 -5z"/>
<path d="M2336 4030 c-287 -33 -522 -137 -698 -310 -56 -54 -68 -71 -68 -98 0
-40 30 -72 68 -72 20 0 40 13 72 46 223 229 573 337 955 294 244 -28 438 -113
603 -264 88 -82 116 -92 152 -56 50 50 7 120 -145 233 -141 105 -318 180 -500
212 -111 19 -334 27 -439 15z"/>
<path d="M2450 2058 c-21 -6 -82 -8 -153 -5 -110 5 -120 4 -139 -15 -18 -18
-20 -30 -16 -88 9 -126 85 -221 206 -257 77 -23 237 -23 314 0 121 36 197 132
205 256 7 104 5 106 -169 106 -78 1 -159 4 -178 7 -19 4 -51 2 -70 -4z m223
-148 c26 0 37 -4 37 -14 0 -23 -60 -64 -110 -75 -97 -23 -211 -8 -267 35 -53
40 -44 53 40 57 39 3 115 3 167 1 52 -2 112 -4 133 -4z"/>
</g>
</svg>
